<svg width="96" height="79" viewBox="0 0 96 79" fill="none" xmlns="http://www.w3.org/2000/svg">
<g opacity="0.4" filter="url(#filter0_f)">
<ellipse cx="47.6104" cy="39.5455" rx="20.6104" ry="12.5455" fill="#FFE60A"/>
</g>
<circle cx="48.4614" cy="36.9545" r="21.9545" fill="white"/>
<path d="M41.257 33.7931H43.0947C44.3107 33.7931 45.3 32.8039 45.3 31.5879V29.7502C45.3 28.5342 44.3107 27.5449 43.0947 27.5449H41.257C40.041 27.5449 39.0518 28.5342 39.0518 29.7502V31.5879C39.0518 32.8039 40.041 33.7931 41.257 33.7931ZM40.5219 29.7502C40.5219 29.3449 40.8517 29.0151 41.257 29.0151H43.0947C43.5001 29.0151 43.8298 29.3449 43.8298 29.7502V31.5879C43.8298 31.9932 43.5001 32.323 43.0947 32.323H41.257C40.8517 32.323 40.5219 31.9932 40.5219 31.5879V29.7502Z" fill="#0C201A"/>
<path d="M55.2241 40.5938H53.7539V42.0639H55.2241V40.5938Z" fill="#0C201A"/>
<path d="M57.8696 40.5938H56.3994V43.5341H57.8696V40.5938Z" fill="#0C201A"/>
<path d="M53.7534 42.0625H52.2832V43.5327H53.7534V42.0625Z" fill="#0C201A"/>
<path d="M49.3432 46.3642V44.894H50.7766V46.3642H52.2468V44.894H50.8134V43.4238H47.873V46.3642H49.3432Z" fill="#0C201A"/>
<path d="M55.2241 46.3633V45.0034H56.4002V43.5332H53.7539V46.3633H55.2241Z" fill="#0C201A"/>
<path d="M42.9106 29.9336H41.4404V31.4038H42.9106V29.9336Z" fill="#0C201A"/>
<path d="M42.9106 42.5039H41.4404V43.9741H42.9106V42.5039Z" fill="#0C201A"/>
<path d="M47.8725 40.6309H46.4023V43.4242H47.8725V40.6309Z" fill="#0C201A"/>
<path d="M52.2836 37.7266H50.8135V39.1967H52.2836V37.7266Z" fill="#0C201A"/>
<path d="M43.0947 40.1152H41.257C40.041 40.1152 39.0518 41.1045 39.0518 42.3205V44.1582C39.0518 45.3742 40.041 46.3635 41.257 46.3635H43.0947C44.3107 46.3635 45.3 45.3742 45.3 44.1582V42.3205C45.3 41.1045 44.3107 40.1152 43.0947 40.1152ZM43.8298 44.1582C43.8298 44.5635 43.5001 44.8933 43.0947 44.8933H41.257C40.8517 44.8933 40.5219 44.5635 40.5219 44.1582V42.3205C40.5219 41.9152 40.8517 41.5854 41.257 41.5854H43.0947C43.5001 41.5854 43.8298 41.9152 43.8298 42.3205V44.1582Z" fill="#0C201A"/>
<path d="M47.8725 31.8457V33.3159H46.4023V34.786H49.3427V31.8457H47.8725Z" fill="#0C201A"/>
<path d="M49.3432 27.5449H47.873V29.0151H49.3432V27.5449Z" fill="#0C201A"/>
<path d="M50.8129 30.375H49.3428V31.8452H50.8129V30.375Z" fill="#0C201A"/>
<path d="M56.3997 34.7852H53.7166V36.2553H52.2832V37.7255H53.7534V39.1589H57.8699V36.2186H56.3997V34.7852ZM56.3997 37.6887H53.7534V36.2553H56.3997V37.6887Z" fill="#0C201A"/>
<path d="M50.8129 34.7852H49.3428V37.7255H50.8129V34.7852Z" fill="#0C201A"/>
<path d="M55.665 27.5449H53.8273C52.6113 27.5449 51.6221 28.5342 51.6221 29.7502V31.5879C51.6221 32.8039 52.6113 33.7931 53.8273 33.7931H55.665C56.881 33.7931 57.8703 32.8039 57.8703 31.5879V29.7502C57.8703 28.5342 56.881 27.5449 55.665 27.5449ZM56.4001 31.5879C56.4001 31.9932 56.0704 32.323 55.665 32.323H53.8273C53.422 32.323 53.0922 31.9932 53.0922 31.5879V29.7502C53.0922 29.3449 53.422 29.0151 53.8273 29.0151H55.665C56.0704 29.0151 56.4001 29.3449 56.4001 29.7502V31.5879Z" fill="#0C201A"/>
<path d="M55.4809 29.9336H54.0107V31.4038H55.4809V29.9336Z" fill="#0C201A"/>
<path d="M41.9917 34.7852H40.5215V36.2553H41.9917V34.7852Z" fill="#0C201A"/>
<path d="M40.5219 36.2559H39.0518V39.1962H40.5219V36.2559Z" fill="#0C201A"/>
<path d="M41.9922 37.726H43.4256V39.1962H44.8958V37.726H43.4624V36.2559H41.9922V37.726Z" fill="#0C201A"/>
<path d="M47.8725 29.0156H46.4023V31.8457H47.8725V29.0156Z" fill="#0C201A"/>
<path d="M47.8725 39.1962V40.6296H49.3427V42.063H52.283V40.5929H49.3427V39.1594H47.8725V36.2559H46.4023V39.1962H47.8725Z" fill="#0C201A"/>
<path d="M46.4023 34.7852H43.4619V36.2553H46.4023V34.7852Z" fill="#0C201A"/>
<defs>
<filter id="filter0_f" x="0.116884" y="0.116884" width="94.987" height="78.8571" filterUnits="userSpaceOnUse" color-interpolation-filters="sRGB">
<feFlood flood-opacity="0" result="BackgroundImageFix"/>
<feBlend mode="normal" in="SourceGraphic" in2="BackgroundImageFix" result="shape"/>
<feGaussianBlur stdDeviation="13.4416" result="effect1_foregroundBlur"/>
</filter>
</defs>
</svg>
