<svg width="96" height="79" viewBox="0 0 96 79" fill="none" xmlns="http://www.w3.org/2000/svg">
<g opacity="0.4" filter="url(#filter0_f)">
<ellipse cx="48.1036" cy="39.5455" rx="20.6104" ry="12.5455" fill="#FFE60A"/>
</g>
<circle cx="48.9545" cy="36.9545" r="21.9545" fill="white"/>
<path d="M50.5918 45.3594H40.4893C40.1392 45.3594 39.9279 45.1639 39.8331 45.0474C39.6695 44.8462 39.6062 44.5843 39.6594 44.3289C40.5107 40.2398 44.1174 37.2528 48.2825 37.1521C48.3547 37.1549 48.4271 37.1562 48.5 37.1562C48.5735 37.1562 48.6467 37.1548 48.7196 37.152C49.996 37.1819 51.2236 37.4732 52.3718 38.0191C52.781 38.2135 53.2703 38.0395 53.4648 37.6303C53.6593 37.2211 53.4853 36.7318 53.0761 36.5373C52.6726 36.3455 52.2608 36.1802 51.8418 36.0418C53.1987 35.0233 54.0781 33.4015 54.0781 31.5781C54.0781 28.5024 51.5758 26 48.5 26C45.4242 26 42.9219 28.5024 42.9219 31.5781C42.9219 33.4035 43.8032 35.0269 45.1627 36.0452C43.9171 36.4553 42.7484 37.0933 41.7254 37.9347C39.8497 39.4776 38.5455 41.6297 38.0532 43.9945C37.8989 44.7355 38.0838 45.4966 38.5603 46.0825C39.0345 46.6656 39.7376 47 40.4893 47H50.5918C51.0448 47 51.4121 46.6327 51.4121 46.1797C51.4121 45.7266 51.0448 45.3594 50.5918 45.3594ZM44.5625 31.5781C44.5625 29.407 46.3288 27.6406 48.5 27.6406C50.6712 27.6406 52.4375 29.407 52.4375 31.5781C52.4375 33.6822 50.7786 35.4061 48.7001 35.5106C48.6335 35.5094 48.5668 35.5088 48.5 35.5088C48.4338 35.5088 48.3676 35.5094 48.3015 35.5107C46.2222 35.4069 44.5625 33.6827 44.5625 31.5781ZM59 43.1035C59 43.5566 58.6327 43.9238 58.1797 43.9238H55.9238V46.1797C55.9238 46.6327 55.5566 47 55.1035 47C54.6505 47 54.2832 46.6327 54.2832 46.1797V43.9238H52.0273C51.5743 43.9238 51.207 43.5566 51.207 43.1035C51.207 42.6505 51.5743 42.2832 52.0273 42.2832H54.2832V40.0273C54.2832 39.5743 54.6505 39.207 55.1035 39.207C55.5566 39.207 55.9238 39.5743 55.9238 40.0273V42.2832H58.1797C58.6327 42.2832 59 42.6505 59 43.1035Z" fill="#0C211B"/>
<defs>
<filter id="filter0_f" x="0.610048" y="0.116884" width="94.987" height="78.8571" filterUnits="userSpaceOnUse" color-interpolation-filters="sRGB">
<feFlood flood-opacity="0" result="BackgroundImageFix"/>
<feBlend mode="normal" in="SourceGraphic" in2="BackgroundImageFix" result="shape"/>
<feGaussianBlur stdDeviation="13.4416" result="effect1_foregroundBlur"/>
</filter>
</defs>
</svg>
