<svg width="96" height="80" viewBox="0 0 96 80" fill="none" xmlns="http://www.w3.org/2000/svg">
<g opacity="0.4" filter="url(#filter0_f)">
<ellipse cx="47.8965" cy="40.1939" rx="20.6104" ry="12.5455" fill="#0AD3FF"/>
</g>
<circle cx="44.435" cy="38.851" r="21.9545" fill="white"/>
<path d="M48.5477 42.1482C47.376 42.1482 46.337 42.7263 45.7005 43.6122L40.079 40.8014C40.1842 40.4685 40.2412 40.1143 40.2412 39.747C40.2412 39.3796 40.1842 39.0254 40.0789 38.6925L45.7005 35.8817C46.337 36.7676 47.376 37.3457 48.5477 37.3457C50.4797 37.3457 52.0516 35.7738 52.0516 33.8418C52.0515 31.9098 50.4797 30.3379 48.5477 30.3379C46.6156 30.3379 45.0438 31.9098 45.0438 33.8418C45.0438 34.2091 45.1007 34.5633 45.206 34.8962L39.5844 37.707C38.9479 36.8211 37.9089 36.2431 36.7374 36.2431C34.8052 36.2431 33.2334 37.8149 33.2334 39.747C33.2334 41.679 34.8052 43.2509 36.7373 43.2509C37.9089 43.2509 38.9479 42.6727 39.5844 41.7869L45.206 44.5977C45.1007 44.9307 45.0438 45.2849 45.0438 45.6522C45.0438 47.5842 46.6156 49.1561 48.5476 49.1561C50.4797 49.156 52.0515 47.5842 52.0515 45.6521C52.0515 43.7201 50.4797 42.1482 48.5477 42.1482Z" fill="#0C201A"/>
<defs>
<filter id="filter0_f" x="0.403017" y="0.765322" width="94.987" height="78.8571" filterUnits="userSpaceOnUse" color-interpolation-filters="sRGB">
<feFlood flood-opacity="0" result="BackgroundImageFix"/>
<feBlend mode="normal" in="SourceGraphic" in2="BackgroundImageFix" result="shape"/>
<feGaussianBlur stdDeviation="13.4416" result="effect1_foregroundBlur"/>
</filter>
</defs>
</svg>
